# xmcd
#
# Track frame offsets: 
#        150
#        9147
#        30626
#        72050
#        90947
#        104416
#        122204
#        162715
#        185226
#
# Disc length: 2788 seconds
#
# Revision: 0
# Processed by: cddbd v1.5.2PL0 Copyright (c) Steve Scherf et al.
# Submitted via: ExactAudioCopy v1.0b3
#
DISCID=6f0ae209
DTITLE=Che Linh - Tho Nhac Cho Que Huong
DYEAR=1900
DGENRE=
TTITLE0=Loi gioi thieu
TTITLE1=Toi da hat se hat va phai hat
TTITLE2=Thuong nho Viet Nam
TTITLE3=Qua con me
TTITLE4=Chien si vo danh
TTITLE5=Xuan tha huong Xuan lac xu
TTITLE6=Goi anh phuc quoc ben nha
TTITLE7=Han Do Ban
TTITLE8=Tam diep khuc
EXTD=
EXTT0=
EXTT1=
EXTT2=
EXTT3=
EXTT4=
EXTT5=
EXTT6=
EXTT7=
EXTT8=
PLAYORDER=
